<svg width="43" height="42" viewBox="0 0 43 42" fill="none" xmlns="http://www.w3.org/2000/svg">
<g filter="url(#filter0_d_5_1524)">
<path d="M38.0013 16.9998C38.0013 26.3887 30.3901 33.9998 21.0013 33.9998C17.0609 33.9998 13.4337 32.6592 10.5508 30.4093L28.7833 12.1768C29.6535 13.5773 30.1551 15.2292 30.1551 16.9998C30.1551 21.1925 27.3363 24.7269 23.4905 25.8111C22.9167 25.0652 22.0151 24.5844 21.0013 24.5844C19.2679 24.5844 17.8628 25.9896 17.8628 27.7229C17.8628 29.4562 19.2679 30.8613 21.0013 30.8613C22.2989 30.8613 23.4126 30.0738 23.8905 28.9507C29.2853 27.6511 33.2936 22.7935 33.2936 16.9998C33.2936 14.3617 32.4612 11.9159 31.0465 9.91356L34.4107 6.54932C36.6607 9.43223 38.0013 13.0595 38.0013 16.9998Z" fill="#FFAF2E"/>
<path d="M10.9548 24.0862L7.59053 27.4505C5.34058 24.5676 4 20.9403 4 17C4 7.61116 11.6112 0 21 0C24.9403 0 28.5676 1.34058 31.4505 3.59053L13.218 21.823C12.3478 20.4225 11.8461 18.7708 11.8461 17C11.8461 12.8073 14.6649 9.27294 18.5108 8.18866C19.0846 8.93463 19.9861 9.41538 21 9.41538C22.7333 9.41538 24.1385 8.01024 24.1385 6.27692C24.1385 4.54359 22.7333 3.13845 21 3.13845C19.7024 3.13845 18.5887 3.92597 18.1108 5.04914C12.716 6.34871 8.70768 11.2063 8.70768 17C8.70768 19.6379 9.54001 22.0838 10.9548 24.0862Z" fill="#F04148"/>
<circle cx="20.9991" cy="6.27693" r="1.30769" fill="#F04148"/>
<circle cx="20.9991" cy="27.7232" r="1.30769" fill="#FFAF2E"/>
</g>
<defs>
<filter id="filter0_d_5_1524" x="0" y="0" width="42.0012" height="41.9998" filterUnits="userSpaceOnUse" color-interpolation-filters="sRGB">
<feFlood flood-opacity="0" result="BackgroundImageFix"/>
<feColorMatrix in="SourceAlpha" type="matrix" values="0 0 0 0 0 0 0 0 0 0 0 0 0 0 0 0 0 0 127 0" result="hardAlpha"/>
<feOffset dy="4"/>
<feGaussianBlur stdDeviation="2"/>
<feComposite in2="hardAlpha" operator="out"/>
<feColorMatrix type="matrix" values="0 0 0 0 0 0 0 0 0 0 0 0 0 0 0 0 0 0 0.25 0"/>
<feBlend mode="normal" in2="BackgroundImageFix" result="effect1_dropShadow_5_1524"/>
<feBlend mode="normal" in="SourceGraphic" in2="effect1_dropShadow_5_1524" result="shape"/>
</filter>
</defs>
</svg>
